# 3ds Max Wavefront OBJ Exporter v0.97b - (c)2007 guruware
# File Created: 31.12.2018 00:28:48

mtllib Cloth.mtl

#
# object Cloth
#

v  17.9017 -0.1704 -16.7788
v  17.9017 -0.9813 -16.5932
v  10.4456 -1.0386 -16.7788
v  10.4456 -0.1704 -16.7788
v  3.4773 -1.0386 -17.4485
v  17.9017 0.3938 -12.8978
v  -5.8828 -0.1497 -12.1491
v  17.5215 0.1055 -9.6337
v  17.0387 0.3690 -6.0037
v  9.4348 0.8482 5.3494
v  17.9017 -0.2817 0.5329
v  17.9017 0.1972 7.1045
v  17.9017 0.2483 8.8992
v  3.4773 -0.1704 -17.4485
v  -4.4441 -0.9569 -16.7788
v  -4.4441 -0.1704 -16.7788
v  -17.9017 -0.0132 10.6406
v  -4.4370 0.2322 10.7235
v  -17.4227 0.6413 3.6014
v  -17.3880 0.0683 -1.8276
v  -17.5012 0.7068 -7.4759
v  -17.9017 -0.1704 -16.7788
v  -17.9017 -0.9569 -16.7788
v  -17.9017 -0.3700 10.8521
v  -4.7770 -0.2263 11.0213
v  17.9017 -0.0327 10.6939
v  9.0667 0.3154 10.7263
v  9.1579 -0.1475 11.0394
v  3.1894 0.1331 15.3182
v  3.3910 -0.1323 15.6148
v  -1.9600 -0.2855 16.8969
v  -2.2644 -0.5598 17.4485
v  1.7820 0.8113 11.0806
v  -17.8759 -1.2658 -11.3135
v  -17.8506 -0.8430 -6.5123
v  -17.7374 -1.2039 -1.5810
v  -17.6243 -0.9146 3.3691
v  -17.9017 -1.1605 9.6501
v  17.9017 -0.4064 10.8762
v  -0.6180 -1.4489 -5.2873
v  5.5972 -1.3264 9.0168
v  -4.4282 -0.5435 10.7230
v  -1.9507 -0.8341 16.8958
v  3.1911 -0.3975 15.3176
v  9.0124 -0.6104 10.8499
v  17.8347 -0.8607 10.5670
v  17.9017 -1.2200 7.2968
v  17.9017 -1.1179 0.5329
v  17.0387 -0.9932 -5.2857
v  17.9017 -1.0236 -10.8806
v  17.9017 -0.7636 -13.0357
# 51 vertices

vn 0.0176 0.5720 -0.8201
vn 0.0260 -0.2231 -0.9744
vn 0.0489 -0.0079 -0.9988
vn 0.0189 0.6844 -0.7289
vn 0.0060 0.0000 -1.0000
vn -0.0139 0.9995 -0.0278
vn 0.0131 0.9987 -0.0485
vn -0.0117 0.9999 0.0073
vn 0.0326 0.9989 -0.0325
vn 0.0369 0.9992 0.0170
vn 0.1452 0.9891 0.0232
vn 0.0864 0.9951 -0.0476
vn 0.0342 0.9956 0.0867
vn 0.0043 0.6862 -0.7274
vn -0.0423 0.0000 -0.9991
vn -0.0295 0.7151 -0.6984
vn -0.0198 0.8388 0.5441
vn -0.1714 0.9505 0.2590
vn -0.0089 0.9999 -0.0100
vn -0.0351 0.9991 0.0227
vn 0.0026 0.9998 -0.0208
vn 0.0179 0.6710 -0.7413
vn 0.0000 0.0000 -1.0000
vn -0.0167 0.5099 0.8601
vn -0.3359 0.6812 0.6504
vn 0.0268 0.8081 0.5884
vn 0.1585 0.8967 0.4133
vn 0.2744 0.5785 0.7681
vn 0.1488 0.9113 0.3839
vn 0.2550 0.8034 0.5380
vn -0.1432 0.9400 0.3098
vn -0.1892 0.9168 0.3516
vn -0.0323 0.9987 0.0397
vn -0.9997 0.0228 0.0093
vn -1.0000 0.0000 0.0047
vn -0.9907 0.1339 0.0235
vn -0.9771 0.2125 0.0113
vn -0.9710 0.2377 0.0264
vn -0.9665 0.2555 0.0244
vn -0.9630 0.2687 0.0221
vn -0.9895 0.1413 -0.0299
vn -0.9908 0.1308 -0.0351
vn -0.9982 0.0141 -0.0591
vn -0.9965 -0.0425 -0.0718
vn -0.9971 0.0632 -0.0416
vn 0.0297 0.4384 0.8983
vn -0.0090 -0.9999 0.0075
vn -0.0031 -1.0000 -0.0080
vn 0.0028 -0.9817 0.1905
vn -0.0032 -0.9613 0.2754
vn -0.1179 -0.9218 0.3694
vn -0.2868 -0.8100 0.5115
vn -0.0784 -0.9635 0.2560
vn -0.1644 -0.9175 0.3621
vn 0.3090 -0.8038 0.5084
vn 0.1850 -0.9334 0.3076
vn 0.2647 -0.4467 0.8546
vn 0.1586 -0.8224 0.5463
vn 0.0021 -0.8355 0.5495
vn -0.0138 -0.8534 0.5211
vn -0.0012 -0.5626 0.8267
vn -0.0018 -0.9985 0.0554
vn 0.0171 -0.9998 -0.0140
vn 0.0258 -0.9996 -0.0079
vn 0.0445 -0.9983 -0.0388
vn 0.0168 -0.9997 -0.0184
vn 0.0062 -0.9981 0.0611
vn 0.0648 -0.9963 -0.0559
vn -0.0034 -0.9994 -0.0349
vn -0.0056 -0.9991 -0.0409
vn 0.0057 -0.9987 -0.0513
vn -0.0106 -0.9999 0.0001
vn -0.0360 -0.9993 0.0122
vn -0.0141 -0.9999 0.0009
vn 0.9980 -0.0623 0.0142
vn 0.9844 -0.1718 0.0391
vn 1.0000 -0.0066 0.0015
vn 1.0000 0.0000 -0.0000
vn 0.9974 0.0000 -0.0727
vn 0.9973 -0.0048 -0.0735
vn 0.9989 -0.0134 -0.0451
vn 0.9990 0.0205 0.0389
vn 0.9769 0.1593 0.1425
vn 0.9822 0.1497 0.1136
vn 0.9991 0.0340 0.0239
# 85 vertex normals

vt 0.3259 0.7024 0.7024
vt 0.3174 0.6936 0.6936
vt 0.3948 0.6150 0.6150
vt 0.4043 0.6238 0.6238
vt 0.4614 0.5347 0.5347
vt 0.3672 0.7434 0.7434
vt 0.6250 0.5017 0.5017
vt 0.4055 0.7737 0.7737
vt 0.4490 0.8066 0.8066
vt 0.6484 0.8461 0.8461
vt 0.5068 0.8859 0.8859
vt 0.5771 0.9542 0.9542
vt 0.5962 0.9731 0.9731
vt 0.4705 0.5437 0.5437
vt 0.5522 0.4590 0.4590
vt 0.5605 0.4678 0.4678
vt 0.9922 0.6150 0.6150
vt 0.8516 0.7572 0.7572
vt 0.9126 0.5459 0.5459
vt 0.8550 0.4888 0.4888
vt 0.7959 0.4287 0.4287
vt 0.7021 0.3267 0.3267
vt 0.6938 0.3184 0.3184
vt 0.9966 0.6191 0.6191
vt 0.8608 0.7578 0.7578
vt 0.6157 0.9925 0.9925
vt 0.7095 0.8999 0.8999
vt 0.7134 0.9073 0.9073
vt 0.8198 0.8864 0.8864
vt 0.8218 0.8927 0.8927
vt 0.8911 0.8486 0.8486
vt 0.9004 0.8517 0.8517
vt 0.7896 0.8269 0.8269
vt 0.2810 0.6921 0.6921
vt 0.2727 0.6997 0.6997
vt 0.2181 0.6455 0.6455
vt 0.2024 0.5864 0.5864
vt 0.1768 0.5925 0.5925
vt 0.1394 0.5366 0.5366
vt 0.1238 0.5474 0.5474
vt 0.0777 0.4951 0.4951
vt 0.0909 0.4771 0.4771
vt 0.0085 0.4150 0.4150
vt 0.0142 0.4136 0.4136
vt 0.0126 0.4351 0.4351
vt 0.6201 0.9970 0.9970
vt 0.4622 0.0879 0.0879
vt 0.3735 0.3594 0.3594
vt 0.1561 0.2739 0.2739
vt 0.3984 0.0186 0.0186
vt 0.2427 0.1479 0.1479
vt 0.2427 0.1396 0.1396
vt 0.1509 0.1089 0.1089
vt 0.1478 0.0986 0.0986
vt 0.1069 0.1782 0.1782
vt 0.1133 0.1802 0.1802
vt 0.0920 0.2866 0.2866
vt 0.0991 0.2891 0.2891
vt 0.3838 0.0034 0.0034
vt 0.0095 0.3867 0.3867
vt 0.0028 0.3818 0.3818
vt 0.0438 0.4219 0.4219
vt 0.1157 0.4937 0.4937
vt 0.1864 0.5461 0.5461
vt 0.2367 0.6145 0.6145
vt 0.3782 0.5981 0.5981
vt 0.2971 0.6750 0.6750
vt 0.2593 0.6375 0.6375
vt 0.4592 0.5315 0.5315
vt 0.5361 0.4409 0.4409
vt 0.6787 0.2983 0.2983
vt 0.6201 0.2407 0.2407
vt 0.5693 0.1899 0.1899
vt 0.5156 0.1392 0.1392
vt 0.3149 0.7209 0.7209
vt 0.3223 0.7195 0.7195
vt 0.3572 0.7476 0.7476
vt 0.3276 0.7463 0.7463
vt 0.3130 0.7263 0.7263
vt 0.3455 0.7631 0.7631
vt 0.4214 0.8137 0.8137
vt 0.4133 0.8217 0.8217
vt 0.4766 0.8715 0.8715
vt 0.4702 0.8914 0.8914
vt 0.5078 0.9241 0.9241
vt 0.5313 0.9255 0.9255
vt 0.5366 0.9586 0.9586
vt 0.5493 0.9490 0.9490
vt 0.5786 0.9912 0.9912
vt 0.5850 0.9817 0.9817
# 90 texture coords

o Cloth
g Cloth
usemtl Cloth_MAT
s 1
f 1/1/1 2/2/2 3/3/3 
f 4/4/4 3/3/3 5/5/5 
f 3/3/3 4/4/4 1/1/1 
f 6/6/6 1/1/1 4/4/4 
f 4/4/4 7/7/7 6/6/6 
f 8/8/8 6/6/6 7/7/7 
f 9/9/9 8/8/8 7/7/7 
f 10/10/10 9/9/9 7/7/7 
f 10/10/10 11/11/11 9/9/9 
f 12/12/12 11/11/11 10/10/10 
f 12/12/12 10/10/10 13/13/13 
f 14/14/14 5/5/5 15/15/15 
f 5/5/5 14/14/14 4/4/4 
f 7/7/7 4/4/4 14/14/14 
f 7/7/7 14/14/14 16/16/16 
f 17/17/17 18/18/18 19/19/19 
f 18/18/18 10/10/10 19/19/19 
f 20/20/20 19/19/19 10/10/10 
f 21/21/21 20/20/20 10/10/10 
f 10/10/10 7/7/7 21/21/21 
f 7/7/7 22/22/22 21/21/21 
f 7/7/7 16/16/16 22/22/22 
f 23/23/23 22/22/22 16/16/16 
f 16/16/16 15/15/15 23/23/23 
f 15/15/15 16/16/16 14/14/14 
f 17/17/17 24/24/24 25/25/25 
f 10/10/10 26/26/26 13/13/13 
f 10/10/10 27/27/27 26/26/26 
f 26/26/26 27/27/27 28/28/28 
f 28/28/28 27/27/27 29/29/29 
f 29/29/29 30/30/30 28/28/28 
f 30/30/30 29/29/29 31/31/31 
f 31/31/31 32/32/32 30/30/30 
f 25/25/25 32/32/32 31/31/31 
f 31/31/31 18/18/18 25/25/25 
f 25/25/25 18/18/18 17/17/17 
f 27/27/27 33/33/33 29/29/29 
f 33/33/33 31/31/31 29/29/29 
f 18/18/18 31/31/31 33/33/33 
f 10/10/10 18/18/18 33/33/33 
f 27/27/27 10/10/10 33/33/33 
f 22/34/34 23/35/35 34/36/36 
f 34/36/36 21/37/37 22/34/34 
f 21/37/37 34/36/36 35/38/38 
f 20/39/39 21/37/37 35/38/38 
f 35/38/38 36/40/40 20/39/39 
f 20/39/39 36/40/40 37/41/41 
f 37/41/41 19/42/42 20/39/39 
f 19/42/42 37/41/41 24/43/43 
f 17/44/44 19/42/42 24/43/43 
f 37/41/41 38/45/45 24/43/43 
f 28/28/28 39/46/46 26/26/26 
f 37/47/47 40/48/48 41/49/49 
f 41/49/49 38/50/50 37/47/47 
f 38/50/50 41/49/49 42/51/51 
f 38/50/50 42/51/51 25/52/52 
f 25/52/52 42/51/51 43/53/53 
f 43/53/53 32/54/54 25/52/52 
f 30/55/55 32/54/54 43/53/53 
f 43/53/53 44/56/56 30/55/55 
f 28/57/57 30/55/55 44/56/56 
f 44/56/56 45/58/58 28/57/57 
f 41/49/49 45/58/58 42/51/51 
f 42/51/51 45/58/58 44/56/56 
f 42/51/51 44/56/56 43/53/53 
f 25/52/52 24/59/59 38/50/50 
f 46/60/60 39/61/61 28/57/57 
f 28/57/57 45/58/58 46/60/60 
f 47/62/62 46/60/60 45/58/58 
f 45/58/58 41/49/49 47/62/62 
f 47/62/62 41/49/49 48/63/63 
f 40/48/48 48/63/63 41/49/49 
f 40/48/48 49/64/64 48/63/63 
f 40/48/48 50/65/65 49/64/64 
f 3/66/66 2/67/67 51/68/68 
f 3/66/66 51/68/68 50/65/65 
f 50/65/65 40/48/48 3/66/66 
f 40/48/48 5/69/69 3/66/66 
f 40/48/48 15/70/70 5/69/69 
f 40/48/48 23/71/71 15/70/70 
f 34/72/72 23/71/71 40/48/48 
f 35/73/73 34/72/72 40/48/48 
f 35/73/73 40/48/48 36/74/74 
f 40/48/48 37/47/47 36/74/74 
f 39/75/75 46/76/76 47/77/77 
f 13/78/78 26/79/78 39/75/75 
f 39/75/75 47/77/77 13/78/78 
f 12/80/78 13/78/78 47/77/77 
f 12/80/78 47/77/77 48/81/79 
f 48/81/79 11/82/80 12/80/78 
f 11/82/80 48/81/79 49/83/81 
f 49/83/81 9/84/82 11/82/80 
f 8/85/83 9/84/82 49/83/81 
f 49/83/81 50/86/84 8/85/83 
f 6/87/85 8/85/83 50/86/84 
f 6/87/85 50/86/84 51/88/78 
f 1/89/78 6/87/85 51/88/78 
f 51/88/78 2/90/78 1/89/78 
# 0 polygons - 98 triangles

