# 3ds Max Wavefront OBJ Exporter v0.97b - (c)2007 guruware
# File Created: 09.10.2016 16:11:26

mtllib Wildcat Ammo.mtl

#
# object Wildcat_Ammo
#

v  -10.0078 -3.7676 5.6602
v  -10.1328 -3.7676 -5.3359
v  10.1563 -3.5371 -5.6602
v  9.9844 -3.5371 5.4805
v  -10.5313 -3.6152 -5.3359
v  -10.3984 -3.6152 5.6602
v  -10.6875 -3.2187 -5.3359
v  -10.5547 -3.2188 5.6602
v  -10.5781 3.0449 5.6602
v  -10.7031 3.0449 -5.3359
v  -10.5547 3.4395 -5.3359
v  -10.4219 3.4395 5.6602
v  -10.3125 3.3301 6.0547
v  -10.4219 3.0449 6.0547
v  -10.0313 3.0449 6.2070
v  -10.0313 3.4395 6.0547
v  -10.3984 -3.2188 6.0547
v  -10.1563 3.5918 -5.3359
v  -10.0313 3.5918 5.6602
v  -10.5547 3.3301 -5.6211
v  -10.1563 3.4395 -5.7305
v  9.8750 3.7676 -5.6602
v  -10.0078 -3.2188 6.2070
v  9.7031 3.2187 6.0313
v  9.7031 3.6152 5.8789
v  -10.2891 -3.5059 6.0547
v  9.7031 3.7676 5.4805
v  9.8750 3.6152 -6.0547
v  -10.1563 3.0449 -5.8828
v  10.2656 3.6152 -5.6602
v  10.1016 3.6152 5.4805
v  10.1016 3.5059 5.7695
v  -10.0078 -3.6152 6.0547
v  9.9844 -2.9902 6.0313
v  9.9844 -3.3848 5.8789
v  10.1016 3.2187 5.8789
v  10.2500 3.2187 5.4805
v  10.4219 3.2188 -5.6602
v  10.1563 3.5059 -6.0547
v  9.8750 3.2188 -6.2070
v  10.2734 -3.3848 5.7695
v  10.3828 -2.9902 5.8789
v  10.2656 3.2188 -6.0547
v  10.3828 -3.3848 5.4805
v  10.5391 -2.9902 5.4805
v  10.7031 -2.9902 -5.6602
v  10.5547 -2.9902 -6.0547
v  10.1563 -2.9902 -6.2070
v  10.5547 -3.3848 -5.6602
v  10.1563 -3.3848 -6.0547
v  10.4453 -3.3848 -5.9453
v  -10.1328 -3.2187 -5.8828
v  -10.1328 -3.6152 -5.7305
v  -10.5547 3.0449 -5.7305
v  -10.5313 -3.2187 -5.7305
v  -10.5313 -3.5059 -5.6211
# 56 vertices

vn -0.1765 -0.9765 0.1843
vn -0.1765 -0.9765 -0.1686
vn 0.1529 -0.9765 -0.1529
vn 0.1529 -0.9765 0.1608
vn -0.6863 -0.7255 -0.1294
vn -0.7020 -0.7020 0.1843
vn -0.9843 -0.1608 -0.1451
vn -0.9686 -0.1843 0.1843
vn -0.9686 0.1686 0.1843
vn -0.9843 0.1451 -0.1451
vn -0.6863 0.7176 -0.1294
vn -0.7020 0.6941 0.1843
vn -0.5373 0.5294 0.6627
vn -0.7255 0.1294 0.6863
vn -0.1529 0.1529 0.9843
vn -0.1373 0.7176 0.6863
vn -0.7255 -0.1373 0.6863
vn -0.1843 0.9608 -0.1686
vn -0.1843 0.9608 0.1843
vn -0.6627 0.5294 -0.5294
vn -0.1922 0.6941 -0.6941
vn 0.1686 0.9686 -0.1686
vn -0.1529 -0.1608 0.9843
vn 0.1765 0.1765 0.9686
vn 0.1765 0.6941 0.7020
vn -0.5373 -0.5373 0.6627
vn 0.1686 0.9686 0.1843
vn 0.1216 0.7176 -0.6784
vn -0.1922 0.1686 -0.9608
vn 0.6941 0.6941 -0.1686
vn 0.6784 0.7176 0.1451
vn 0.6549 0.5294 0.5373
vn -0.1294 -0.7255 0.6863
vn 0.1843 -0.1765 0.9686
vn 0.1373 -0.6863 0.7255
vn 0.6706 0.1451 0.7255
vn 0.9686 0.1686 0.1686
vn 0.9608 0.1922 -0.1686
vn 0.5294 0.5294 -0.6549
vn 0.1373 0.1529 -0.9765
vn 0.5294 -0.6627 0.5373
vn 0.6941 -0.1686 0.7020
vn 0.7098 0.1451 -0.6784
vn 0.7176 -0.6863 0.1451
vn 0.9686 -0.1608 0.1843
vn 0.9686 -0.1608 -0.1686
vn 0.6941 -0.1686 -0.6941
vn 0.1686 -0.1765 -0.9686
vn 0.7176 -0.6863 -0.1294
vn 0.1294 -0.6863 -0.7176
vn 0.5294 -0.6627 -0.5294
vn -0.1843 -0.1843 -0.9608
vn -0.1843 -0.7020 -0.6863
vn -0.6863 0.1294 -0.7176
vn -0.6863 -0.1373 -0.7176
vn -0.6627 -0.5373 -0.5294
# 56 vertex normals

vt 0.2656 0.2715 0.0000
vt 0.2627 0.0146 0.0000
vt 0.7363 0.0073 0.0000
vt 0.7324 0.2676 0.0000
vt 0.0194 0.7849 0.0000
vt 0.0082 0.7849 0.0000
vt 0.0049 0.4810 0.0000
vt 0.0171 0.4810 0.0000
vt 0.0301 0.7849 0.0000
vt 0.0299 0.4810 0.0000
vt 0.2041 0.4780 0.0000
vt 0.2020 0.7887 0.0000
vt 0.2126 0.7836 0.0000
vt 0.2158 0.4819 0.0000
vt 0.2194 0.4736 0.0000
vt 0.2142 0.4697 0.0000
vt 0.2039 0.2979 0.0000
vt 0.2262 0.4663 0.0000
vt 0.2273 0.4731 0.0000
vt 0.2151 0.2983 0.0000
vt 0.2241 0.7811 0.0000
vt 0.2277 0.4810 0.0000
vt 0.2140 0.7902 0.0000
vt 0.2249 0.7897 0.0000
vt 0.7773 0.7889 0.0000
vt 0.2102 0.2837 0.0000
vt 0.2261 0.2974 0.0000
vt 0.7725 0.4673 0.0000
vt 0.7720 0.4766 0.0000
vt 0.2180 0.2910 0.0000
vt 0.7729 0.4849 0.0000
vt 0.7778 0.7965 0.0000
vt 0.2244 0.7994 0.0000
vt 0.7886 0.7877 0.0000
vt 0.7847 0.4824 0.0000
vt 0.7832 0.4761 0.0000
vt 0.2240 0.2778 0.0000
vt 0.2256 0.2881 0.0000
vt 0.7773 0.2969 0.0000
vt 0.7778 0.2856 0.0000
vt 0.7847 0.4697 0.0000
vt 0.7959 0.4775 0.0000
vt 0.7998 0.7914 0.0000
vt 0.7852 0.7960 0.0000
vt 0.7783 0.8031 0.0000
vt 0.7803 0.2744 0.0000
vt 0.7856 0.2861 0.0000
vt 0.7876 0.2983 0.0000
vt 0.7905 0.7996 0.0000
vt 0.7930 0.2832 0.0000
vt 0.7988 0.2979 0.0000
vt 0.9692 0.4795 0.0000
vt 0.9697 0.7872 0.0000
vt 0.8037 0.9703 0.0000
vt 0.7930 0.9692 0.0000
vt 0.7827 0.9700 0.0000
vt 0.9800 0.7871 0.0000
vt 0.9824 0.4790 0.0000
vt 0.7827 0.9783 0.0000
vt 0.7905 0.9794 0.0000
vt 0.7969 0.9835 0.0000
vt 0.2235 0.9717 0.0000
vt 0.2222 0.9840 0.0000
vt 0.7837 0.9886 0.0000
vt 0.2192 0.9955 0.0000
vt 0.9907 0.7871 0.0000
vt 0.9951 0.4795 0.0000
vt 0.2124 0.7969 0.0000
vt 0.2130 0.9698 0.0000
vt 0.2118 0.9785 0.0000
vt 0.2018 0.9703 0.0000
vt 0.2068 0.9848 0.0000
# 72 texture coords

g Wildcat_Ammo
usemtl _Wildcat_AmmoMaterial_000001
s 1
f 1/1/1 2/2/2 3/3/3 
f 3/3/3 4/4/4 1/1/1 
f 5/5/5 2/6/2 1/7/1 
f 1/7/1 6/8/6 5/5/5 
f 7/9/7 5/5/5 6/8/6 
f 6/8/6 8/10/8 7/9/7 
f 7/9/7 8/10/8 9/11/9 
f 9/11/9 10/12/10 7/9/7 
f 11/13/11 10/12/10 9/11/9 
f 9/11/9 12/14/12 11/13/11 
f 13/15/13 12/14/12 9/11/9 
f 9/11/9 14/16/14 13/15/13 
f 14/16/14 9/11/9 8/17/8 
f 15/18/15 13/15/13 14/16/14 
f 12/14/12 13/15/13 16/19/16 
f 15/18/15 16/19/16 13/15/13 
f 15/18/15 14/16/14 17/20/17 
f 8/17/8 17/20/17 14/16/14 
f 18/21/18 11/13/11 12/14/12 
f 12/14/12 19/22/19 18/21/18 
f 16/19/16 19/22/19 12/14/12 
f 10/12/10 11/13/11 20/23/20 
f 11/13/11 18/21/18 21/24/21 
f 21/24/21 20/23/20 11/13/11 
f 22/25/22 18/21/18 19/22/19 
f 21/24/21 18/21/18 22/25/22 
f 17/20/17 8/17/8 6/26/6 
f 17/20/17 23/27/23 15/18/15 
f 24/28/24 15/18/15 23/27/23 
f 16/19/16 15/18/15 24/28/24 
f 19/22/19 16/19/16 25/29/25 
f 24/28/24 25/29/25 16/19/16 
f 23/27/23 17/20/17 26/30/26 
f 6/26/6 26/30/26 17/20/17 
f 19/22/19 27/31/27 22/25/22 
f 25/29/25 27/31/27 19/22/19 
f 22/25/22 28/32/28 21/24/21 
f 29/33/29 21/24/21 28/32/28 
f 20/23/20 21/24/21 29/33/29 
f 30/34/30 22/25/22 27/31/27 
f 28/32/28 22/25/22 30/34/30 
f 27/31/27 31/35/31 30/34/30 
f 31/35/31 27/31/27 25/29/25 
f 25/29/25 32/36/32 31/35/31 
f 32/36/32 25/29/25 24/28/24 
f 26/30/26 6/26/6 1/37/1 
f 23/27/23 26/30/26 33/38/33 
f 1/37/1 33/38/33 26/30/26 
f 23/27/23 34/39/34 24/28/24 
f 35/40/35 34/39/34 23/27/23 
f 23/27/23 33/38/33 35/40/35 
f 36/41/36 24/28/24 34/39/34 
f 24/28/24 36/41/36 32/36/32 
f 37/42/37 32/36/32 36/41/36 
f 37/42/37 31/35/31 32/36/32 
f 38/43/38 30/34/30 31/35/31 
f 31/35/31 37/42/37 38/43/38 
f 30/34/30 39/44/39 28/32/28 
f 39/44/39 30/34/30 38/43/38 
f 40/45/40 28/32/28 39/44/39 
f 28/32/28 40/45/40 29/33/29 
f 33/38/33 1/37/1 4/46/4 
f 4/46/4 35/40/35 33/38/33 
f 4/46/4 41/47/41 35/40/35 
f 34/39/34 35/40/35 41/47/41 
f 34/39/34 42/48/42 36/41/36 
f 41/47/41 42/48/42 34/39/34 
f 37/42/37 36/41/36 42/48/42 
f 40/45/40 39/44/39 43/49/43 
f 38/43/38 43/49/43 39/44/39 
f 4/46/4 44/50/44 41/47/41 
f 42/48/42 41/47/41 44/50/44 
f 44/50/44 45/51/45 42/48/42 
f 42/48/42 45/51/45 37/42/37 
f 38/43/38 37/42/37 45/52/45 
f 45/52/45 46/53/46 38/43/38 
f 43/49/43 38/43/38 46/54/46 
f 46/54/46 47/55/47 43/49/43 
f 40/45/40 43/49/43 47/55/47 
f 47/55/47 48/56/48 40/45/40 
f 29/33/29 40/45/40 48/56/48 
f 49/57/49 46/53/46 45/52/45 
f 45/52/45 44/58/44 49/57/49 
f 50/59/50 48/56/48 47/55/47 
f 47/55/47 51/60/51 50/59/50 
f 51/60/51 47/55/47 46/54/46 
f 46/54/46 49/61/49 51/60/51 
f 48/56/48 52/62/52 29/33/29 
f 53/63/53 52/62/52 48/56/48 
f 48/56/48 50/59/50 53/63/53 
f 3/64/3 51/60/51 49/61/49 
f 3/64/3 50/59/50 51/60/51 
f 50/59/50 3/64/3 2/65/2 
f 2/65/2 53/63/53 50/59/50 
f 3/66/3 49/57/49 44/58/44 
f 44/58/44 4/67/4 3/66/3 
f 54/68/54 29/33/29 52/62/52 
f 29/33/29 54/68/54 20/23/20 
f 52/62/52 55/69/55 54/68/54 
f 55/69/55 52/62/52 53/63/53 
f 53/63/53 56/70/56 55/69/55 
f 56/70/56 53/63/53 2/65/2 
f 10/12/10 20/23/20 54/68/54 
f 10/12/10 54/68/54 55/69/55 
f 7/71/7 55/69/55 56/70/56 
f 55/69/55 7/71/7 10/12/10 
f 2/65/2 5/72/5 56/70/56 
f 7/71/7 56/70/56 5/72/5 
# 108 faces

